<?xml version="1.0" standalone="no"?><!DOCTYPE svg PUBLIC "-//W3C//DTD SVG 1.1//EN" "http://www.w3.org/Graphics/SVG/1.1/DTD/svg11.dtd"><svg class="icon" style="" viewBox="0 0 1024 1024" version="1.1" xmlns="http://www.w3.org/2000/svg" p-id="2117" xmlns:xlink="http://www.w3.org/1999/xlink" width="29" height="29"><defs><style type="text/css"><![CDATA[

]]></style></defs><path d="M511.302076 958.511794c-60.361226 0-118.927498-11.826846-174.072714-35.15102-53.253043-22.523915-101.075172-54.765553-142.137057-95.827438-41.062908-41.061885-73.303523-88.884014-95.827438-142.13808-23.324174-55.144192-35.15102-113.710464-35.15102-174.07169 0-60.361226 11.826846-118.927498 35.15102-174.072714 22.523915-53.253043 54.765553-101.075172 95.827438-142.13808 41.062908-41.061885 88.884014-73.303523 142.137057-95.827438 55.144192-23.324174 113.711487-35.15102 174.072714-35.15102 60.361226 0 118.927498 11.826846 174.07169 35.15102 53.253043 22.523915 101.075172 54.765553 142.13808 95.827438 41.061885 41.062908 73.303523 88.884014 95.827438 142.13808 23.324174 55.144192 35.15102 113.710464 35.15102 174.072714 0 60.361226-11.826846 118.927498-35.15102 174.07169-22.523915 53.253043-54.765553 101.075172-95.827438 142.13808-41.062908 41.062908-88.884014 73.303523-142.13808 95.827438C630.229574 946.684948 571.663302 958.511794 511.302076 958.511794zM511.302076 104.343749c-224.409212 0-406.979817 182.570605-406.979817 406.979817 0 224.409212 182.570605 406.979817 406.979817 406.979817s406.979817-182.570605 406.979817-406.979817C918.281893 286.914354 735.711288 104.343749 511.302076 104.343749z" p-id="2118" fill="#707070"></path><path d="M344.485931 483.759657l338.764386 0 0 60.260938-338.764386 0 0-60.260938Z" p-id="2119" fill="#707070"></path><path d="M483.737143 344.507421l60.260938 0 0 338.764386-60.260938 0 0-338.764386Z" p-id="2120" fill="#707070"></path></svg>