<?xml version="1.0" standalone="no"?><!DOCTYPE svg PUBLIC "-//W3C//DTD SVG 1.1//EN" "http://www.w3.org/Graphics/SVG/1.1/DTD/svg11.dtd"><svg class="icon" style="" viewBox="0 0 1215 1024" version="1.1" xmlns="http://www.w3.org/2000/svg" p-id="4299" xmlns:xlink="http://www.w3.org/1999/xlink" width="70.0048828125" height="59"><defs><style type="text/css"><![CDATA[

]]></style></defs><path d="M712.024639 554.520419c-2.484587 3.155876-5.016247 6.274914-7.623631 9.329483-24.605398 28.823466-53.353139 51.500954-85.445044 67.401086-33.561373 16.628726-69.2502 25.059745-106.073874 25.059745-36.824697 0-72.512501-8.43102-106.073874-25.059745-32.091906-15.900132-60.84067-38.57762-85.446068-67.401086-2.851954-3.341095-5.622044-6.751774-8.326643-10.214642C166.304653 626.703415 65.493643 778.205944 65.493643 953.254749c0 0.104377 0.002047 0.208754 0.002047 0.313132l892.314819 0c0-0.104377 0.002047-0.208754 0.002047-0.313132C957.812555 778.905886 857.802794 627.921149 712.024639 554.520419z" p-id="4300" fill="#707070"></path><path d="M746.534618 344.04066A228.828 268.055 0 1 1 746.534618 345.063967Z" p-id="4301" fill="#707070"></path></svg>