<?xml version="1.0" standalone="no"?><!DOCTYPE svg PUBLIC "-//W3C//DTD SVG 1.1//EN" "http://www.w3.org/Graphics/SVG/1.1/DTD/svg11.dtd"><svg class="icon" style="" viewBox="0 0 1024 1024" version="1.1" xmlns="http://www.w3.org/2000/svg" p-id="1384" xmlns:xlink="http://www.w3.org/1999/xlink" width="59" height="59"><defs><style type="text/css"><![CDATA[

]]></style></defs><path d="M832.695464 329.739956c7.608282 25.654286 11.649318 52.476165 11.649318 80.083943 0 184.109158-179.502233 333.358367-400.930345 333.358367-46.285163 0-90.732467-6.53381-132.097574-18.532075l62.875003-38.709627c20.99415 3.431146 42.572608 5.436826 64.717977 5.436826 194.059787 0 351.377766-137.662313 351.377766-307.455417 0-169.803337-157.316955-307.455417-351.377766-307.455417S87.533101 214.117612 87.533101 383.92095c0 98.367355 53.002145 185.718819 135.14498 242.011916l0 153.288199 79.190597-48.755424c64.100924 74.732052 166.190043 123.084293 281.196357 123.084293 22.147416 0 43.724851-2.00568 64.717977-5.446036l151.514809 93.290733L799.29782 788.115642c82.141812-56.302307 135.143956-143.644561 135.143956-242.021126C934.441776 461.720873 895.587863 385.294227 832.695464 329.739956zM614.599238 346.756515c22.397103 0 40.542368 18.159592 40.542368 40.534182 0 22.391986-18.145266 40.552601-40.542368 40.552601s-40.544415-18.160615-40.544415-40.552601C574.0538 364.916107 592.202135 346.756515 614.599238 346.756515zM452.424648 346.756515c22.397103 0 40.542368 18.159592 40.542368 40.534182 0 22.391986-18.145266 40.552601-40.542368 40.552601-22.396079 0-40.543392-18.160615-40.543392-40.552601C411.881257 364.916107 430.028569 346.756515 452.424648 346.756515zM249.70769 387.290697c0-22.37459 18.146289-40.534182 40.543392-40.534182 22.396079 0 40.543392 18.159592 40.543392 40.534182 0 22.391986-18.147312 40.552601-40.543392 40.552601C267.853979 427.843298 249.70769 409.682683 249.70769 387.290697z" p-id="1385" fill="#707070"></path></svg>