<?xml version="1.0" standalone="no"?><!DOCTYPE svg PUBLIC "-//W3C//DTD SVG 1.1//EN" "http://www.w3.org/Graphics/SVG/1.1/DTD/svg11.dtd"><svg class="icon" style="" viewBox="0 0 1024 1024" version="1.1" xmlns="http://www.w3.org/2000/svg" p-id="1053" xmlns:xlink="http://www.w3.org/1999/xlink" width="59" height="59"><defs><style type="text/css"><![CDATA[

]]></style></defs><path d="M821.867055 853.047855C821.727418 853.164218 821.611055 853.280582 821.471418 853.420218 813.698327 860.448582 802.387782 861.961309 793.008873 857.260218 743.600873 832.474764 626.934691 775.735855 611.947055 771.337309 574.6176 759.607855 569.4976 741.641309 569.4976 699.703855 569.4976 675.639855 575.990691 654.996945 588.232145 628.884945 594.539055 615.619491 601.032145 594.068945 603.243055 577.684945 604.523055 567.817309 608.712145 558.484945 615.228509 550.967855 621.000145 544.265309 627.516509 530.0224 632.4736 505.097309 636.523055 484.9664 632.7296 472.259491 630.588509 464.835491 626.678691 446.612945 630.123055 398.1824 636.5696 362.5984 639.339055 347.4944 632.171055 317.076945 615.158691 295.363491 598.076509 273.347491 571.5456 258.569309 532.470691 256.009309L498.8416 255.939491C457.532509 258.569309 431.094691 273.417309 413.942691 295.2704 396.9536 316.983855 389.7856 347.447855 392.555055 362.551855 398.955055 398.019491 402.422691 446.473309 397.9776 466.953309 397.000145 470.420945 392.6016 484.9664 396.604509 505.027491 401.608145 529.929309 408.124509 544.195491 413.896145 550.967855 420.412509 558.484945 424.555055 567.817309 425.835055 577.6384 427.976145 594.0224 434.539055 615.5264 440.892509 629.047855 450.038691 648.596945 453.692509 671.3344 453.692509 700.425309 453.692509 742.7584 449.014691 759.956945 411.5456 771.988945 398.559418 775.828945 299.533964 825.842036 233.439418 859.331491 224.060509 864.079127 212.749964 862.543127 204.907055 855.514764 204.6976 855.328582 204.488145 855.1424 204.255418 854.932945 191.152873 843.156945 193.759418 821.908945 209.3056 813.600582 268.767418 781.810036 354.527418 735.427491 397.046691 722.883491 401.771055 721.394036 402.492509 721.091491 402.492509 700.402036 402.492509 678.083491 399.932509 662.327855 394.486691 650.691491 387.016145 634.866036 378.219055 608.195491 375.030691 584.2944 366.187055 574.007855 354.108509 553.714036 346.312145 515.011491 339.656145 481.079855 348.267055 454.595491 348.662691 453.2224 350.315055 445.379491 348.011055 403.860945 342.1696 371.651491 338.120145 349.588945 343.1936 302.578036 373.611055 263.735855 392.811055 239.159855 429.558691 209.044945 495.560145 204.855855L532.424145 204.786036C599.612509 208.9984 636.360145 239.159855 655.560145 263.735855 685.9776 302.578036 691.051055 349.588945 687.0016 371.698036 681.160145 403.907491 678.856145 445.426036 680.555055 453.362036 680.8576 454.595491 689.5616 481.079855 682.742691 515.127855 675.016145 553.783855 662.984145 574.0544 654.070691 584.387491 650.9056 608.311855 642.108509 634.935855 634.614691 650.807855 627.772509 665.399855 620.744145 682.644945 620.744145 699.7504 620.744145 720.4864 621.4656 720.695855 626.492509 722.2784 664.613236 733.5424 757.099055 780.483491 816.607418 811.599127 832.316509 819.8144 834.992873 841.132218 821.867055 853.047855M511.990691 0.009309C229.227055 0.009309-0.009309 229.2224-0.009309 512.009309-0.009309 794.772945 229.227055 1024.009309 511.990691 1024.009309 794.7776 1024.009309 1023.990691 794.772945 1023.990691 512.009309 1023.990691 229.2224 794.7776 0.009309 511.990691 0.009309" p-id="1054" fill="#707070"></path></svg>