<?xml version="1.0" standalone="no"?><!DOCTYPE svg PUBLIC "-//W3C//DTD SVG 1.1//EN" "http://www.w3.org/Graphics/SVG/1.1/DTD/svg11.dtd"><svg class="icon" style="" viewBox="0 0 1024 1024" version="1.1" xmlns="http://www.w3.org/2000/svg" p-id="6828" xmlns:xlink="http://www.w3.org/1999/xlink" width="200" height="200"><defs><style type="text/css"><![CDATA[

]]></style></defs><path d="M613.118514 805.378817l50.906413 21.376866 53.956889-128.489396-50.906413-21.37789c-51.639101-21.683858-51.408857-56.675814 0.309038-77.836763l51.187823-20.909216-52.727898-128.994909-51.134611 20.889773c-51.80897 21.165042-76.478835-3.744277-54.715159-55.263651 0.062422-0.147356 0.020466-0.251733 0.064468-0.360204l21.255093-50.613748L452.877973 309.865303l-21.453614 51.090609c-21.754466 51.394531-56.670697 51.197032-77.797877-0.554632l-20.908192-51.140751-128.97649 52.689013 20.8734 51.170426c21.162995 51.765991-3.733021 76.400041-55.280024 54.753021l-50.960649-21.400403L64.416614 574.96403l50.961672 21.399379c51.548026 21.645996 51.391461 56.667627-0.398066 77.840856L63.846632 695.094038l52.67571 129.015376 51.167357-20.915355c51.723012-21.115923 76.314083 3.674693 54.867632 55.155181l-21.467941 51.125401 128.437208 53.934376 21.255093-50.614771c0.046049-0.10847 0.166799-0.190335 0.211824-0.296759 21.545712-51.613518 56.586786-51.405787 77.782527 0.330528l20.874423 51.170426 129.029702-52.711526-20.925588-51.147914C536.658098 808.357662 561.480436 783.694959 613.118514 805.378817zM343.980797 749.058091c-62.08808-26.072819-91.28096-97.567129-65.215304-159.637814 26.064632-62.068637 97.54871-91.287099 159.63679-65.214281 62.068637 26.063609 91.28096 97.567129 65.216327 159.635767C477.552955 745.913471 406.049434 775.123746 343.980797 749.058091z" p-id="6829" fill="#707070"></path><path d="M940.219363 331.270822l39.053458 0 0-98.574063-39.053458 0c-39.617299 0-49.051159-22.883173-21.115923-50.848085l27.655873-27.65485-69.713758-69.686129-27.627221 27.628244c-27.992541 27.991518-50.903344 18.502399-50.818409-21.057595 0-0.112564-0.057305-0.169869-0.057305-0.252757L798.54262 51.994188l-98.532107 0L700.010513 91.189885c-0.112564 39.476083-22.938432 48.909943-50.889017 20.945031L621.479949 84.507696l-69.685105 69.685105 27.626197 27.65485c27.978215 27.964912 18.488073 50.848085-21.056572 50.848085l-39.096437 0 0 98.574063 39.096437 0c39.546691 0 49.034786 22.88215 21.057595 50.874691l-27.627221 27.628244 69.687152 69.712735 27.641547-27.652803c27.949562-27.937283 50.77543-18.503423 50.887994 20.944008l0 39.223327 98.534154 0L798.54569 473.169623c0-0.083911 0.057305-0.169869 0.057305-0.25378-0.084934-39.558971 22.825868-49.02046 50.817386-21.085224l27.628244 27.65485 69.713758-69.712735-27.65485-27.628244C891.168204 354.152972 900.603087 331.270822 940.219363 331.270822zM749.270427 368.246969c-47.632857 0-86.250386-38.631856-86.250386-86.250386 0-47.617507 38.617529-86.250386 86.250386-86.250386 47.617507 0 86.250386 38.631856 86.250386 86.250386C835.520813 329.615113 796.887934 368.246969 749.270427 368.246969z" p-id="6830" fill="#707070"></path></svg>