<?xml version="1.0" standalone="no"?><!DOCTYPE svg PUBLIC "-//W3C//DTD SVG 1.1//EN" "http://www.w3.org/Graphics/SVG/1.1/DTD/svg11.dtd"><svg class="icon" style="" viewBox="0 0 1024 1024" version="1.1" xmlns="http://www.w3.org/2000/svg" p-id="12569" xmlns:xlink="http://www.w3.org/1999/xlink" width="200" height="200"><defs><style type="text/css"><![CDATA[

]]></style></defs><path d="M511.38048 63.03232c-63.552512 0-123.935744 13.35808-178.72896 37.168128 18.327552-3.033088 37.050368-5.005312 56.242176-5.005312 189.73696 0 343.584768 153.8304 343.584768 343.56736 0 189.773824-153.847808 343.56736-343.584768 343.56736-150.92224 0-278.8096-97.453056-324.942848-232.757248 18.975744 230.694912 211.854336 412.08832 447.428608 412.08832 248.139776 0 449.318912-201.143296 449.318912-449.318912C960.699392 264.193024 759.520256 63.03232 511.38048 63.03232zM347.198464 529.78688 379.838464 417.022976 492.58496 384.428032 379.838464 351.806464 347.198464 239.059968 314.612736 351.806464 201.857024 384.428032 314.612736 417.022976Z" p-id="12570" fill="#707070"></path></svg>