<?xml version="1.0" standalone="no"?><!DOCTYPE svg PUBLIC "-//W3C//DTD SVG 1.1//EN" "http://www.w3.org/Graphics/SVG/1.1/DTD/svg11.dtd"><svg class="icon" style="" viewBox="0 0 1024 1024" version="1.1" xmlns="http://www.w3.org/2000/svg" p-id="2422" xmlns:xlink="http://www.w3.org/1999/xlink" width="200" height="200"><defs><style type="text/css"><![CDATA[

]]></style></defs><path d="M228.889 361.364l23.967 0c6.611 0 11.983-5.372 11.983-11.983L264.839 85.744c0-6.611-5.372-11.984-11.983-11.984l-23.967 0c-6.612 0-11.983 5.373-11.983 11.984l0 263.637C216.906 355.992 222.277 361.364 228.889 361.364zM360.708 361.364l71.9 0c6.612 0 11.984-5.372 11.984-11.983l-0.001-263.637c0-6.611-5.371-11.984-11.983-11.984l-71.9 0c-6.612 0-11.984 5.373-11.984 11.984l0 263.637C348.724 355.992 354.095 361.364 360.708 361.364zM768.146 361.364l23.968 0c6.61 0 11.981-5.372 11.981-11.983L804.095 85.744c0-6.611-5.371-11.984-11.981-11.984l-23.968 0c-6.611 0-11.983 5.373-11.983 11.984l0 263.637C756.162 355.992 761.534 361.364 768.146 361.364zM672.278 505.166l0 215.702c0 19.849 16.113 35.951 35.95 35.951s35.951-16.102 35.951-35.951L744.179 505.166c0-19.849-16.114-35.951-35.951-35.951S672.278 485.317 672.278 505.166zM875.997 361.364l59.918 0c6.611 0 11.983-5.372 11.983-11.983L947.898 85.744c0-6.611-5.371-11.984-11.983-11.984l-59.918 0c-6.611 0-11.983 5.373-11.983 11.984l0 263.637C864.014 355.992 869.386 361.364 875.997 361.364zM696.245 349.381 696.245 85.744c0-6.611-5.373-11.984-11.983-11.984L612.36 73.76c-6.611 0-11.983 5.373-11.983 11.984l0 263.637c0 6.611 5.372 11.983 11.983 11.983l71.901 0C690.872 361.364 696.245 355.992 696.245 349.381zM519.149 469.215 82.431 469.215c-11.773 0-21.31 9.537-21.31 21.311l0 436.719c0 11.771 9.537 21.311 21.31 21.311l436.719 0c11.772 0 21.31-9.539 21.31-21.311L540.46 490.525C540.459 478.752 530.922 469.215 519.149 469.215zM468.558 876.653 133.021 876.653 133.021 541.115l335.537 0L468.558 876.653zM923.932 660.952c-19.849 0-35.951 16.102-35.951 35.95l0 179.751L708.229 876.653c-19.837 0-35.95 16.103-35.95 35.951 0 19.848 16.113 35.95 35.95 35.95l215.703 0c19.848 0 35.95-16.103 35.95-35.95L959.882 696.902C959.882 677.053 943.778 660.952 923.932 660.952zM85.087 361.364l59.917 0c6.613 0 11.984-5.372 11.984-11.983L156.988 85.744c0-6.611-5.371-11.984-11.984-11.984L85.087 73.76c-6.612 0-11.984 5.373-11.984 11.984l0 263.637C73.104 355.992 78.475 361.364 85.087 361.364zM923.932 469.215c-19.849 0-35.951 16.103-35.951 35.951l0 47.934c0 19.848 16.103 35.951 35.951 35.951 19.848 0 35.95-16.104 35.95-35.951l0-47.934C959.882 485.317 943.778 469.215 923.932 469.215zM252.856 780.786l95.867 0c13.236 0 23.967-10.743 23.967-23.968l0-95.867c0-13.225-10.731-23.968-23.967-23.968l-95.867 0c-13.236 0-23.967 10.743-23.967 23.968l0 95.867C228.889 770.043 239.62 780.786 252.856 780.786zM522.484 361.364c9.923 0 17.975-5.372 17.975-11.983L540.459 85.744c0-6.611-8.052-11.984-17.975-11.984s-17.975 5.373-17.975 11.984l0 263.637C504.51 355.992 512.562 361.364 522.484 361.364z" p-id="2423" fill="#8a8a8a"></path></svg>