<?xml version="1.0" standalone="no"?><!DOCTYPE svg PUBLIC "-//W3C//DTD SVG 1.1//EN" "http://www.w3.org/Graphics/SVG/1.1/DTD/svg11.dtd"><svg class="icon" style="" viewBox="0 0 1024 1024" version="1.1" xmlns="http://www.w3.org/2000/svg" p-id="1566" xmlns:xlink="http://www.w3.org/1999/xlink" width="59" height="59"><defs><style type="text/css"><![CDATA[

]]></style></defs><path d="M443.733333 85.333333 102.4 85.333333C83.5584 85.333333 68.266667 100.625067 68.266667 119.466667l0 341.333333c0 18.8416 15.291733 34.133333 34.133333 34.133333l341.333333 0c18.8416 0 34.133333-15.291733 34.133333-34.133333L477.866667 119.466667C477.866667 100.625067 462.574933 85.333333 443.733333 85.333333zM443.733333 546.133333 102.4 546.133333c-18.8416 0-34.133333 15.291733-34.133333 34.133333l0 341.333333c0 18.8416 15.291733 34.133333 34.133333 34.133333l341.333333 0c18.8416 0 34.133333-15.291733 34.133333-34.133333L477.866667 580.266667C477.866667 561.425067 462.574933 546.133333 443.733333 546.133333zM980.974933 268.970667 771.6352 59.613867c-11.5712-11.5712-30.293333-11.5712-41.864533 0L520.413867 268.970667c-11.5712 11.5712-11.5712 30.293333 0 41.864533L729.770667 520.174933c11.5712 11.5712 30.293333 11.5712 41.864533 0l209.3568-209.3568C992.546133 299.264 992.546133 280.541867 980.974933 268.970667zM915.2512 304.913067l-149.538133 149.538133c-8.2432 8.260267-21.6576 8.260267-29.9008 0l-149.538133-149.538133c-8.260267-8.2432-8.260267-21.6576 0-29.9008l149.538133-149.538133c8.2432-8.260267 21.6576-8.260267 29.9008 0l149.538133 149.538133C923.511467 283.272533 923.511467 296.669867 915.2512 304.913067zM921.6 546.133333 580.266667 546.133333c-18.8416 0-34.133333 15.291733-34.133333 34.133333l0 341.333333c0 18.8416 15.291733 34.133333 34.133333 34.133333l341.333333 0c18.8416 0 34.133333-15.291733 34.133333-34.133333L955.733333 580.266667C955.733333 561.425067 940.4416 546.133333 921.6 546.133333z" p-id="1567" fill="#707070"></path></svg>