<?xml version="1.0" standalone="no"?><!DOCTYPE svg PUBLIC "-//W3C//DTD SVG 1.1//EN" "http://www.w3.org/Graphics/SVG/1.1/DTD/svg11.dtd"><svg class="icon" style="" viewBox="0 0 1024 1024" version="1.1" xmlns="http://www.w3.org/2000/svg" p-id="7101" xmlns:xlink="http://www.w3.org/1999/xlink" width="200" height="200"><defs><style type="text/css"><![CDATA[

]]></style></defs><path d="M512 1024C229.599232 1024 0 794.320896 0 512 0 229.720064 229.599232 0 512 0c282.241024 0 512 229.720064 512 512C1024 794.320896 794.241024 1024 512 1024L512 1024zM512 28.319744C245.280768 28.319744 28.239872 245.239808 28.239872 512S245.280768 995.719168 512 995.719168c266.63936 0 483.680256-216.961024 483.680256-483.719168S778.63936 28.319744 512 28.319744L512 28.319744zM703.840256 261.640192" p-id="7102" fill="#1296db"></path><path d="M800.641024 598.280192l-2.000896-10.799104-1.359872-5.439488-1.359872-5.320704-2.000896-5.439488-2.000896-6.039552-2.719744-6.039552-2.639872-6.080512-4.800512-9.439232-3.999744-8.759296-4.079616-7.399424-3.360768-6.760448-3.999744-6.680576-2.719744-5.439488-6.080512-9.40032-8.07936-11.440128-2.000896-3.39968-0.720896-0.679936 0-1.359872 1.439744-4.040704 1.28-3.360768 2.080768-6.719488 0.559104-4.040704L752.0768 460.8l0.720896-2.680832 0-3.319808-0.720896-3.39968-0.559104-3.360768-0.720896-5.400576-1.359872-5.400576-2.000896-5.359616-2.000896-4.759552-2.080768-3.999744-2.000896-4.079616-2.000896-3.319808-4.079616-6.080512-0.720896-2.039808-0.559104-1.359872-1.439744-10.760192-1.359872-6.719488-0.559104-8.800256-2.080768-8.759296-2.719744-10.080256-1.28-6.080512-1.359872-4.67968-2.000896-5.400576-2.080768-6.080512-2.080768-6.039552-2.000896-6.080512-5.279744-11.440128-2.719744-5.400576-4.079616-6.039552-3.360768-5.400576-3.360768-6.080512-4.72064-6.039552-4.079616-5.400576-4.640768-5.400576-5.439488-5.400576-4.72064-4.72064-6.00064-4.67968-3.44064-2.680832-2.639872-2.039808-6.79936-4.72064-7.28064-4.72064-7.520256-4.72064-8.720384-4.040704-8.07936-3.360768-8.159232-3.39968-8.720384-3.360768-8.800256-2.000896-8.720384-2.039808-9.35936-2.000896-8.880128-2.000896-8.720384-1.359872-9.35936-0.720896-8.800256-1.32096-9.439232 0-8.720384 0-8.800256 0-8.800256 0.679936-8.720384 1.359872-8.720384 0.641024-8.800256 1.359872-7.999488 1.359872-8.159232 2.000896-8.07936 2.719744-7.999488 2.680832-7.440384 2.719744-7.440384 3.360768-6.719488 2.680832-6.719488 4.040704-6.719488 4.040704-6.160384 4.079616-5.920768 4.67968-5.439488 4.040704-7.440384 7.440384-6.79936 6.039552-6.00064 6.719488-5.359616 6.760448-5.439488 6.719488-4.72064 6.080512-4.079616 6.719488-2.639872 3.360768-2.000896 3.39968-4.079616 6.00064-3.360768 6.119424-2.719744 6.039552-2.719744 6.080512-2.639872 5.400576-2.000896 5.359616-2.080768 6.080512-2.000896 4.72064-2.000896 9.40032-2.639872 9.439232-0.720896 7.440384-1.359872 6.760448 0 4.67968 0 4.040704 0 4.040704-1.28 2.039808-2.080768 2.000896-1.359872 2.719744-0.641024 2.680832-2.080768 5.359616-1.359872 5.359616-0.720896 4.079616 0 4.079616 0 3.360768-3.999744 4.67968-1.921024 5.400576-2.799616 4.72064-1.28 4.759552-0.720896 3.999744-1.359872 4.040704 0 3.360768 0 4.040704 0 2.719744 0.720896 2.680832 1.359872 4.72064 0.720896 3.360768-2.080768 1.359872-5.439488 4.040704-7.360512 6.760448-4.72064 3.999744-4.72064 4.040704-3.44064 2.719744-1.921024 2.680832-5.359616 6.080512-5.439488 5.359616-4.079616 5.359616-4.640768 6.79936-4.800512 6.719488-4.72064 7.399424-3.999744 6.080512-3.360768 7.440384-3.44064 6.719488-2.000896 6.080512-2.639872 6.719488-2.000896 6.719488-2.080768 6.719488-2.000896 6.080512-0.641024 6.080512-0.720896 6.039552-1.28 5.400576-0.720896 10.760192 0 10.119168 0 4.72064 0.720896 4.67968 0.559104 7.440384 0.720896 4.040704 1.359872 3.360768 0.641024 3.360768 0.720896 2.000896 2.719744 4.079616 0.720896 1.359872 1.28 1.32096 1.359872 0 1.28 0.679936 1.439744 0 1.921024-0.679936 5.439488-1.32096 3.999744-1.359872 4.159488-2.680832 3.280896-2.719744 3.999744-2.680832 3.44064-3.360768 2.719744-3.39968 3.280896-3.360768 2.799616-3.360768 1.921024-3.360768 1.359872-2.680832 3.44064-6.080512 0.559104-2.039808 0.720896-1.359872 0.720896-1.32096 0.641024-1.359872 0.720896 0 0.641024-0.679936 0.720896 0 0 0.679936 0.641024 0 0.641024 0 1.439744 7.440384 1.921024 6.039552 2.719744 6.080512 2.639872 5.359616 2.080768 5.400576 2.719744 5.359616 2.639872 4.72064 2.719744 4.72064 2.719744 4.079616 2.639872 4.040704 6.080512 7.399424 5.439488 6.039552 5.359616 5.400576 4.72064 4.759552 4.72064 3.319808 6.719488 2.039808 2.639872 1.32096 0.720896 0.720896L342.544384 716.8l-0.720896 0.679936-1.28 0.679936-4.72064 0.679936-4.72064 0-4.079616 0.679936-3.999744 0.641024-4.079616 1.359872-3.360768 1.359872-2.639872 1.359872-2.719744 1.32096-2.639872 0.679936-2.799616 2.000896-1.28 1.359872-2.719744 1.32096-2.719744 3.39968-1.359872 2.000896-1.28 1.400832-1.439744 3.360768-0.559104 3.360768-1.359872 2.680832-0.720896 2.680832 0 3.360768 0 1.359872-0.720896 2.719744 0 2.680832 0 2.719744 0 2.000896 0 2.719744 0.720896 1.32096 2.080768 4.040704 0.559104 2.000896 0.720896 2.719744 2.000896 2.000896 1.359872 1.359872 2.080768 2.039808 1.28 1.32096 4.72064 2.680832 4.800512 3.39968 4.640768 2.680832 6.160384 2.039808 6.00064 2.000896 6.080512 2.039808 6.719488 2.000896 6.719488 1.359872 7.440384 0.641024 6.719488 1.359872 8.07936 1.359872 14.800896 1.359872 14.800896 0.679936 14.159872 0 6.719488 0 6.79936 0 6.00064-0.679936 5.439488-0.679936 6.080512-0.679936 4.640768 0 8.07936-2.000896 6.080512-1.359872 6.00064-1.359872 10.24-4.040704 4.72064-2.000896 4.640768-2.039808 7.440384-4.040704 6.719488-3.39968 4.800512-3.319808 3.919872-2.719744 5.439488 0 4.079616 0.720896 8.720384 0.641024 4.079616 0 3.360768 0 2.639872 0.679936 2.719744 0.679936 4.72064 1.32096 4.079616 2.000896 9.35936 2.719744 8.720384 3.39968 9.519104 2.000896 8.720384 2.039808 9.439232 2.039808 9.439232 2.000896 9.439232 0.679936 8.800256 0.641024 8.720384 1.359872 8.720384 0.641024 8.720384 0 8.800256 0 8.07936 0 8.159232-1.32096 7.999488-0.679936 7.440384-0.641024 7.360512-1.359872 6.79936-2.039808 6.719488-1.32096 2.639872-0.679936 3.360768-1.359872 6.160384-2.000896 4.640768-2.719744 5.359616-2.039808 4.72064-2.680832 4.079616-2.680832 1.359872-2.039808 2.000896-2.000896 2.719744-2.719744 1.921024-3.319808 1.439744-2.719744 0.641024-1.32096 0.720896-2.080768 0.720896-2.000896 0-2.000896 0.641024-2.039808-0.641024-2.680832-0.720896-2.680832-0.720896-2.719744-1.359872-2.680832-1.28-3.360768-2.080768-2.039808-2.000896-2.719744-2.639872-2.000896-5.359616-4.67968-6.160384-4.759552-6.00064-3.360768-6.719488-3.360768-14.880768-7.399424-2.879488-1.759232 4.960256-4.999168 3.280896-3.360768 2.719744-3.360768 4.800512-6.719488 4.640768-7.440384 4.079616-6.719488 3.360768-6.080512 5.359616-12.120064 3.999744-10.119168 2.080768-6.719488 2.000896-2.680832 0.720896-2.039808 1.359872-0.641024 0.641024 0 0.641024 0 3.360768 7.360512 3.360768 6.760448 2.719744 4.040704 2.639872 4.040704 2.799616 4.040704 2.639872 4.040704 2.719744 2.719744 1.359872 1.32096 1.28 2.039808 2.080768 0.641024 1.28 1.359872 2.719744 1.359872 2.000896 0.679936 0.720896 0 1.359872 0 2.000896-0.679936 2.080768-1.359872 2.000896-0.679936 2.000896-1.32096 1.359872-2.039808 2.000896-2.039808 1.359872-2.000896 1.28-2.719744 2.080768-2.680832 1.28-2.680832 0.720896-3.360768 2.080768-6.760448 2.000896-7.360512 0.641024-8.12032 0.720896-4.72064 0-4.040704 0-4.040704 0-5.359616-1.359872-9.439232L800.641024 598.280192 800.641024 598.280192zM700.960768 715.440128l-0.641024-0.641024 1.120256-1.159168L700.960768 715.440128 700.960768 715.440128zM700.960768 715.440128" p-id="7103" fill="#1296db"></path></svg>