<?xml version="1.0" standalone="no"?><!DOCTYPE svg PUBLIC "-//W3C//DTD SVG 1.1//EN" "http://www.w3.org/Graphics/SVG/1.1/DTD/svg11.dtd"><svg class="icon" style="" viewBox="0 0 1024 1024" version="1.1" xmlns="http://www.w3.org/2000/svg" p-id="10907" xmlns:xlink="http://www.w3.org/1999/xlink" width="200" height="200"><defs><style type="text/css"><![CDATA[

]]></style></defs><path d="M511.242753 2.046612c-280.754289 0-509.174652 228.420363-509.174652 509.180791s228.420363 509.180791 509.174652 509.180791c280.766568 0 509.180791-228.420363 509.180791-509.180791S792.009322 2.046612 511.242753 2.046612zM511.242753 1007.835855c-273.829576 0-496.602312-222.778876-496.602312-496.608451S237.413178 14.618952 511.242753 14.618952s496.608451 222.778876 496.608451 496.608451S785.072329 1007.835855 511.242753 1007.835855z" p-id="10908" fill="#d81e06"></path><path d="M650.123824 517.040806c-23.796986-4.714372-12.235672-17.809621-12.235672-17.809621s23.301705-39.235606-4.612041-67.763336c-34.55705-35.328623-118.581746 4.498454-118.581746 4.498454-32.093952 10.17985-23.596418-4.649903-19.058055-29.873378 0-29.711695-9.950629-80.009242-95.42842-50.308803C314.794569 385.658524 241.467517 490.310002 241.467517 490.310002c-50.983161 69.549006-44.233434 123.289977-44.233434 123.289977 12.729929 118.652354 136.102794 151.226237 232.04696 158.941965 100.945063 8.092305 237.174748-35.565007 278.491759-125.248585C749.089813 557.459355 674.014954 521.915837 650.123824 517.040806zM436.745039 739.075739c-100.208283 4.78805-181.210132-46.563502-181.210132-114.918309 0-68.419276 81.001849-123.279744 181.210132-128.003326 100.281961-4.713348 181.443445 37.502126 181.443445 105.781208C618.188484 670.278863 537.027 734.425835 436.745039 739.075739z" p-id="10909" fill="#d81e06"></path><path d="M700.019211 474.116181c8.117888 0 15.035438-6.14393 16.204054-14.151301 0.147356-0.591471 0.221034-1.118474 0.221034-1.796926 12.288884-113.110127-90.689489-93.64275-90.689489-93.64275-9.150404 0-16.479323 7.564279-16.479323 16.991999 0 9.276271 7.328919 16.841573 16.479323 16.841573 73.978898-16.691147 57.659211 58.916854 57.659211 58.916854C683.414021 466.626603 690.858574 474.116181 700.019211 474.116181z" p-id="10910" fill="#d81e06"></path><path d="M687.882799 276.380678c-35.610032-8.523117-72.242348-1.173732-82.486666 0.839111-0.800225 0.074701-1.537006 0.839111-2.263553 0.989537-0.36839 0.074701-0.590448 0.441045-0.590448 0.441045-10.107195 2.926656-17.520025 12.503778-17.520025 23.803125 0 13.484106 10.697643 24.567535 24.038486 24.567535 0 0 12.961196-1.775436 21.753443-5.294586 8.708336-3.582595 82.4662-2.667759 119.108748 60.20929 19.98517 45.886073 8.771781 76.597539 7.381108 81.537038 0 0-4.748141 11.923564-4.748141 23.663956 0 13.548574 10.697643 22.060435 23.933085 22.060435 11.067057 0 20.37505-1.539053 23.102161-20.683065l0.147356 0C839.064011 354.538759 751.59589 291.585985 687.882799 276.380678z" p-id="10911" fill="#d81e06"></path><path d="M423.936315 537.774013c-100.797707 12.0525-89.141226 108.535949-89.141226 108.535949s-1.052982 30.550807 27.00812 46.112224c58.985416 32.648584 119.709429 12.880355 150.391219-27.602661C542.887474 624.315018 524.872169 525.796214 423.936315 537.774013z" p-id="10912" fill="#d81e06"></path></svg>